<svg xmlns="http://www.w3.org/2000/svg" viewBox="8 0 290 80">
	<style>
		path[id$="15_"],
		path[id$="23_"],
		path[id$="26_"],
		path[id$="50_"],
		[id$="52_"],
		[id$="53_"],
		path[id$="54_"],
		path[id$="55_"],
		path[id$="58_"],
		[id$="59_"],
		[id$="63_"],
		[id$="67_"]{
		fill:#ff9600;
		}
		[id$="73_"],
		[id$="77_"],
		[id$="86_"],
		[id$="89_"],
		[id$="92_"],
		[id$="93_"],
		[id$="94_"],
		[id$="_3_"],
		[id$="_2_"]{
		fill:#940021;
		}
	</style>
<g>
<g>
<polygon id="XMLID_2_" class="foot-logo"
points="81.3,24.4 47,6.1 12.7,24.4 12.7,27.8 47,9.5 81.3,27.8           "/>
</g>
<g id="XMLID_6_">
<path id="XMLID_15_" class="foot-logo"
d="M44.7,52.9l0,5.8c1.8,0,7.4,0.4,7.4-2.9C52.1,52.4,46.5,52.9,44.7,52.9z"/>
<path id="XMLID_23_" class="foot-logo"
d="M50.9,47.6c0-3.1-4.7-2.6-6.2-2.6l0,5.3C46.2,50.3,50.9,50.6,50.9,47.6z"/>
<path id="XMLID_26_" class="foot-logo" d="M52.7,29.3c-1.9-0.5-3.8-0.7-5.7-0.7c-10.4,0-19.9,7.1-22.6,17.7c-3.1,12.5,4.5,25.1,17,28.2
c1.9,0.5,3.8,0.7,5.7,0.7c10.4,0,19.9-7.1,22.6-17.7C72.7,45.1,65.1,32.5,52.7,29.3z M57.3,56.4c-0.4,4.2-3.5,5.3-7.9,5.5l0,4.4
l-2.6,0l0-4.3c-0.7,0-1.4,0-2.1,0l0,4.3l-2.6,0l0-4.4c-0.6,0-1.2,0-1.9,0l-3.4,0l0.5-3.1c0,0,1.9,0,1.9,0c0.7,0,0.9-0.5,1-0.9
l0-6.9c0.1,0,0.2,0,0.3,0c-0.1,0-0.2,0-0.3,0l0-4.9c-0.1-0.5-0.4-1.2-1.5-1.2c0,0-1.9,0-1.9,0l0-2.8l3.6,0l0,0c0.5,0,1.1,0,1.7,0
l0-4.3l2.6,0l0,4.2c0.7,0,1.4,0,2.1,0l0-4.2l2.6,0l0,4.3c3.4,0.3,6.1,1.4,6.4,4.5c0.2,2.3-0.7,3.7-2.3,4.4
C56.1,51.5,57.6,53,57.3,56.4z"/>
</g>
<path id="XMLID_50_" class="foot-logo" d="M108.5,40.6c-0.3-0.7-1-1.2-1.9-1.4c0.9-0.3,1.7-0.8,2.3-1.4c0.6-0.6,1-1.4,1.3-2.2
c0.5-1.6,0.2-2.8-0.7-3.6c-0.9-0.8-2.4-1.2-4.5-1.2H99h-1.9l-0.6,2.1l1.8,0.4l-3.6,12.6l-2,0.4l-0.6,2.1h8.6c2,0,3.7-0.4,5.1-1.3
c1.4-0.9,2.3-2.1,2.8-3.8C108.8,42.2,108.8,41.4,108.5,40.6z M105,43.2c-0.2,0.8-0.6,1.4-1.2,1.8c-0.6,0.4-1.4,0.6-2.3,0.6h-3.2
l1.4-5.1h3.5c0.9,0,1.5,0.2,1.8,0.7C105.2,41.7,105.3,42.3,105,43.2z M105.2,37.5c-0.6,0.4-1.4,0.6-2.3,0.6h-2.5l1.3-4.6h2.4
c1,0,1.7,0.2,2.1,0.6c0.4,0.4,0.5,1,0.2,1.8C106.3,36.6,105.8,37.1,105.2,37.5z"/>
<polygon id="XMLID_52_" class="foot-logo" points="111.9,35.3 111.3,37.4 113.1,37.7 110.7,45.8 108.9,46.2 108.3,48.3 115.2,48.3
115.8,46.2 114.3,45.8 117.3,35.3        "/>
<polygon id="XMLID_53_" class="foot-logo"
points="115.4,29.5 114.7,32.1 118.2,32.1 118.9,29.5         "/>
<path id="XMLID_54_" class="foot-logo" d="M124.6,37.7h2.3l0.7-2.5h-2.3l0.9-3.2h-3.5l-0.9,3.2h-1.9l-0.7,2.5h1.9l-1.9,6.6
c-0.4,1.4-0.4,2.5,0.1,3.2c0.5,0.7,1.3,1,2.5,1c0.4,0,0.9,0,1.3-0.1c0.4-0.1,0.8-0.2,1.2-0.3l0.4-2.5c-0.2,0-0.5,0.1-0.6,0.1
s-0.4,0-0.6,0c-0.4,0-0.6-0.1-0.7-0.3c-0.1-0.2-0.1-0.6,0-1.1L124.6,37.7z"/>
<path id="XMLID_55_" class="foot-logo" d="M139.1,40.3l0.9-3.5c-0.4-0.6-1-1-1.7-1.3c-0.7-0.3-1.6-0.5-2.7-0.5c-2,0-3.7,0.6-5.1,1.9
c-1.4,1.2-2.4,2.8-3,4.7l-0.1,0.4c-0.6,1.9-0.5,3.5,0.2,4.7c0.7,1.2,2,1.8,4,1.8c1.5,0,2.9-0.4,4.2-1.3c1.3-0.9,2.1-2,2.4-3.3
l0-0.1H135c-0.2,0.6-0.5,1.1-1,1.5c-0.5,0.4-1,0.5-1.7,0.5c-0.9,0-1.5-0.4-1.7-1.1c-0.2-0.7-0.1-1.6,0.2-2.8l0.1-0.4
c0.3-1.1,0.8-2.1,1.4-2.8c0.6-0.7,1.4-1.1,2.4-1.1c0.3,0,0.6,0.1,0.8,0.2c0.2,0.1,0.4,0.2,0.5,0.4l0,2H139.1z"/>
<path id="XMLID_58_" class="foot-logo" d="M152.7,41.7c0.6-1.9,0.5-3.5-0.3-4.8c-0.7-1.2-2.1-1.9-4-1.9c-1.9,0-3.6,0.6-5,1.9
c-1.4,1.2-2.4,2.8-3,4.8l-0.1,0.3c-0.6,2-0.5,3.6,0.3,4.8c0.7,1.2,2.1,1.8,4,1.8c1.9,0,3.6-0.6,5-1.8c1.4-1.2,2.4-2.8,3-4.8
L152.7,41.7z M149.2,41.7l-0.1,0.3c-0.3,1.2-0.8,2.1-1.4,2.9c-0.6,0.7-1.4,1.1-2.3,1.1c-0.9,0-1.5-0.4-1.7-1.1
c-0.2-0.7-0.1-1.7,0.2-2.9l0.1-0.3c0.3-1.2,0.8-2.1,1.4-2.8c0.6-0.7,1.4-1.1,2.3-1.1c0.9,0,1.5,0.4,1.7,1.1
C149.6,39.6,149.6,40.5,149.2,41.7z"/>
<polygon id="XMLID_59_" class="foot-logo" points="161.2,35.3 155.8,35.3 155.2,37.4 157,37.7 154.7,45.8 152.9,46.2 152.3,48.3
159.1,48.3 159.7,46.2 158.2,45.8        "/>
<polygon id="XMLID_63_" class="foot-logo"
points="162.8,29.5 159.3,29.5 158.6,32.1 162.1,32.1         "/>
<path id="XMLID_67_" class="foot-logo" d="M175.5,36.3c-0.5-0.8-1.4-1.2-2.7-1.2c-0.8,0-1.5,0.2-2.3,0.6c-0.7,0.4-1.4,0.9-2,1.6l0.4-1.9
h-5.1l-0.6,2.1l1.8,0.4l-2.3,8.1l-1.8,0.4l-0.6,2.1h6.6l0.6-2.1l-1.3-0.4l2-7c0.3-0.3,0.7-0.6,1.2-0.8c0.4-0.2,0.9-0.3,1.3-0.3
c0.7,0,1.2,0.2,1.4,0.5c0.2,0.4,0.2,1,0,1.9l-1.6,5.7l-1.6,0.4l-0.6,2.1h6.7l0.6-2.1l-1.6-0.4l1.6-5.7
C176,38.4,176,37.1,175.5,36.3z"/>
<g id="XMLID_8_">
<path id="XMLID_73_" class="foot-logo" d="M196.9,30.8h-3.6L183.6,46l-1.3,0.2l-0.6,2.1h6l0.6-2.1l-1.2-0.2l1.5-2.4h5.7l0.1,2.4
l-1.3,0.2l-0.6,2.1h6l0.6-2.1l-1.2-0.2L196.9,30.8z M190.2,41l3.7-6.2h0.1l0.2,6.2H190.2z"/>
<path id="XMLID_77_" class="foot-logo" d="M213.2,40.3l0.9-3.5c-0.4-0.6-1-1-1.7-1.3c-0.7-0.3-1.6-0.5-2.7-0.5c-2,0-3.7,0.6-5.1,1.9
c-1.4,1.2-2.4,2.8-3,4.7l-0.1,0.4c-0.6,1.9-0.5,3.5,0.2,4.7c0.7,1.2,2,1.8,4,1.8c1.5,0,2.9-0.4,4.2-1.3c1.3-0.9,2.1-2,2.4-3.3
l0-0.1h-3.2c-0.2,0.6-0.5,1.1-1,1.5c-0.5,0.4-1,0.5-1.7,0.5c-0.9,0-1.5-0.4-1.7-1.1s-0.1-1.6,0.2-2.8l0.1-0.4
c0.3-1.1,0.8-2.1,1.4-2.8c0.6-0.7,1.4-1.1,2.4-1.1c0.3,0,0.6,0.1,0.8,0.2c0.2,0.1,0.4,0.2,0.5,0.4l0,2H213.2z"/>
<path id="XMLID_86_" class="foot-logo" d="M222.2,35c-1,0-1.9,0.1-2.8,0.4c-0.9,0.3-1.8,0.7-2.5,1.1l-0.8,2.9h2.6l0.6-1.4
c0.2-0.1,0.5-0.2,0.9-0.3c0.3-0.1,0.7-0.1,1.1-0.1c0.7,0,1.2,0.2,1.5,0.5c0.3,0.3,0.3,0.8,0.1,1.5l-0.4,1.3h-1.8
c-1.9,0-3.4,0.3-4.6,1c-1.2,0.7-1.9,1.6-2.3,2.8c-0.3,1.2-0.2,2.1,0.3,2.8c0.6,0.7,1.5,1,2.7,1c0.8,0,1.5-0.1,2.2-0.4
c0.7-0.3,1.3-0.7,1.9-1.2c0,0.2,0,0.5,0,0.7c0,0.2,0,0.5,0.1,0.7h4.1l0.6-2.1l-1-0.1c0-0.2,0.1-0.3,0.1-0.5
c0-0.2,0.1-0.4,0.2-0.6l1.5-5.4c0.4-1.5,0.2-2.6-0.5-3.4C225,35.4,223.8,35,222.2,35z M221.4,44.7c-0.3,0.3-0.8,0.6-1.3,0.9
c-0.5,0.2-1,0.3-1.5,0.3c-0.5,0-0.9-0.1-1.1-0.4s-0.3-0.6-0.1-1c0.1-0.5,0.5-0.9,0.9-1.3c0.5-0.3,1.1-0.5,1.8-0.5h1.8L221.4,44.7
z"/>
<path id="XMLID_89_" class="foot-logo" d="M243.3,29.5h-3.5h-1.9l-0.6,2.1l1.8,0.4l-1.3,4.7c-0.2-0.5-0.6-0.9-1-1.2
c-0.4-0.3-1-0.4-1.6-0.4c-1.6,0-3,0.6-4.3,1.9c-1.3,1.3-2.2,2.9-2.8,5l-0.1,0.3c-0.6,1.9-0.6,3.5,0,4.6c0.6,1.2,1.6,1.8,3.2,1.8
c0.7,0,1.4-0.2,2-0.5c0.6-0.3,1.3-0.8,1.8-1.4l-0.2,1.6h4.7l0.6-2.1l-1.6-0.4L243.3,29.5z M235.5,44.6c-0.4,0.4-0.7,0.7-1.2,0.9
c-0.4,0.2-0.9,0.3-1.4,0.3c-0.9,0-1.4-0.3-1.6-1c-0.2-0.7-0.1-1.5,0.2-2.7l0.1-0.3c0.4-1.2,0.8-2.2,1.4-3
c0.6-0.8,1.3-1.1,2.2-1.1c0.5,0,0.9,0.1,1.2,0.3c0.3,0.2,0.5,0.6,0.6,1L235.5,44.6z"/>
<path id="XMLID_92_" class="foot-logo" d="M250.1,45.6c-0.6,0.2-1.2,0.2-2,0.2c-0.9,0-1.5-0.3-1.8-0.8c-0.4-0.6-0.4-1.3-0.3-2.1l0-0.1
h7.8l0.5-1.9c0.5-1.8,0.4-3.2-0.2-4.3c-0.7-1.1-1.9-1.6-3.6-1.6c-1.8,0-3.4,0.6-4.8,1.9c-1.4,1.3-2.4,2.8-3,4.8l-0.1,0.5
c-0.5,1.9-0.4,3.4,0.4,4.6c0.8,1.2,2.1,1.8,4,1.8c1.1,0,2-0.1,3-0.4c0.9-0.3,1.7-0.6,2.4-1.1l-0.3-2.2
C251.3,45.2,250.6,45.4,250.1,45.6z M247.9,38.5c0.5-0.5,1.1-0.7,1.8-0.7c0.7,0,1.2,0.2,1.4,0.7c0.2,0.4,0.2,1,0,1.8l-0.1,0.3
h-4.3l0-0.1C247,39.6,247.4,39,247.9,38.5z"/>
<path id="XMLID_93_" class="foot-logo" d="M276.3,36.4c-0.5-0.9-1.4-1.3-2.7-1.3c-0.9,0-1.7,0.2-2.4,0.6c-0.8,0.4-1.4,0.9-2,1.6
	c-0.1-0.7-0.4-1.3-0.9-1.7c-0.5-0.4-1.1-0.6-2-0.6c-0.8,0-1.6,0.2-2.3,0.5c-0.7,0.3-1.4,0.8-2,1.4l0.3-1.7h-5.1l-0.6,2.1l1.8,0.4
	l-2.3,8.1l-1.8,0.4l-0.6,2.1h6.7l0.6-2.1l-1.4-0.4l2-7c0.3-0.3,0.7-0.6,1.1-0.8c0.4-0.2,0.8-0.3,1.3-0.3c0.6,0,1.1,0.2,1.3,0.6
	c0.2,0.4,0.2,1.1-0.1,2l-1.6,5.4l-1.5,0.4l-0.6,2.1h6.3l0.6-2.1l-1.3-0.4l1.7-6.1c0-0.1,0.1-0.2,0.1-0.3c0-0.1,0.1-0.2,0.1-0.4
	c0.3-0.4,0.7-0.7,1.1-0.9c0.4-0.2,0.9-0.3,1.4-0.3c0.6,0,1.1,0.2,1.3,0.6c0.2,0.4,0.2,1.1-0.1,2.1l-1.6,5.4l-1.6,0.4l-0.6,2.1
	h6.7l0.6-2.1l-1.6-0.4l1.6-5.4C276.7,38.6,276.8,37.2,276.3,36.4z"/>
	<path id="XMLID_94_" class="foot-logo" d="M287.6,35.3l-0.6,2.1l1.4,0.2l-3.8,6.1l-0.1,0l0.1-0.9l-0.3-5.2l1.5-0.2l0.6-2.1h-6.4
		l-0.6,2.1l1.2,0.2l1.1,10.7l-0.7,1c-0.3,0.4-0.6,0.8-1,1.1c-0.4,0.3-0.9,0.4-1.5,0.4c-0.1,0-0.2,0-0.3,0c-0.1,0-0.2,0-0.3,0
		l-1.1,2.6c0.3,0.1,0.6,0.2,0.9,0.2c0.2,0,0.5,0.1,0.8,0.1c1.3,0,2.3-0.3,3.1-1c0.8-0.6,1.5-1.4,2.2-2.4l8.4-12.7l1.3-0.2l0.6-2.1
		H287.6z"/>
	</g>
	<path id="XMLID_3_" class="foot-logo" d="M80.7,44.9c0-1.6-1-3-2.4-3.6v-8.8l3-1.6L47,12.5L12.7,30.8L26,37.9c4.6-6.9,12.4-11.3,21-11.3
		c2.1,0,4.1,0.3,6.1,0.8c6.4,1.6,11.6,5.5,14.9,10.5l7.3-3.9v7.2c-1.4,0.6-2.4,2-2.4,3.6c0,1.5,0.8,2.8,2,3.4c-1.2,0.7-2,1.9-2,3.4
		v7.7h7.8v-7.7c0-1.5-0.8-2.7-2-3.4C79.9,47.6,80.7,46.4,80.7,44.9z"/>
	</g>
</svg>